<svg width="60" height="60" viewBox="0 0 60 60" fill="none" xmlns="http://www.w3.org/2000/svg">
<circle cx="30" cy="30" r="28" stroke="white" stroke-width="4"/>
<path d="M25.64 36.7H29.69V23.77C28.59 24.81 27.77 25.85 27.23 26.89L24.11 25.09C24.71 24.07 25.68 22.92 27.02 21.64C28.36 20.36 29.17 19.72 29.45 19.72C29.75 19.72 30.48 20.07 31.64 20.77C32.8 21.45 33.43 21.9 33.53 22.12V36.7H36.32V40H25.64V36.7Z" fill="white"/>
<circle cx="30" cy="30" r="28" stroke="white" stroke-width="4"/>
<path d="M25.64 36.7H29.69V23.77C28.59 24.81 27.77 25.85 27.23 26.89L24.11 25.09C24.71 24.07 25.68 22.92 27.02 21.64C28.36 20.36 29.17 19.72 29.45 19.72C29.75 19.72 30.48 20.07 31.64 20.77C32.8 21.45 33.43 21.9 33.53 22.12V36.7H36.32V40H25.64V36.7Z" fill="white"/>
</svg>
